<svg id="svg_main" width="1285" height="468" viewBox="0 0 1285 468" xmlns="http://www.w3.org/2000/svg"><desc>Created with Snap</desc><defs/><text x="5" y="40" style="font-family: &quot;M PLUS 2&quot;; font-size: 33.8667px;">若狭海岸線</text><text x="5" y="60" style="font-family: Montserrat; font-size: 15.5222px;">Wakasa Coastal Railway</text><line x1="73" x2="144" y1="117.5" y2="117.5" stroke="#000000" style="stroke-width: 21.1667;"/><rect x="5" y="105" width="75" height="25" fill="#000000" style=""/><text x="42.5" y="119.552083" fill="#ffffff" style="font-family: &quot;M PLUS 2&quot;; font-size: 14.8167px; text-anchor: middle;">普通</text><text x="42.5" y="127.754166" fill="#ffffff" style="font-family: Montserrat; font-size: 7.40833px; text-anchor: middle;">Local</text><line x1="95" x2="166" y1="117.5" y2="117.5" stroke="#000000" style="stroke-width: 21.1667;"/><rect x="96" y="106" width="50.799999" height="23" fill="#ffffff" stroke="#000000" style="stroke-width: 2;"/><line x1="73" x2="144" y1="87.5" y2="87.5" stroke="#12aff3" style="stroke-width: 21.1667;"/><rect x="5" y="75" width="75" height="25" fill="#12aff3" style=""/><text x="42.5" y="89.552083" fill="#ffffff" style="font-family: &quot;M PLUS 2&quot;; font-size: 14.8167px; text-anchor: middle;">快速</text><text x="42.5" y="97.754166" fill="#ffffff" style="font-family: Montserrat; font-size: 7.40833px; text-anchor: middle;">Rapid</text><line x1="95" x2="166" y1="87.5" y2="87.5" stroke="#12aff3" style="stroke-width: 21.1667;"/><rect x="96" y="76" width="50.799999" height="23" fill="#ffffff" stroke="#12aff3" style="stroke-width: 2;"/><text x="120.682186" y="148.098883" style="font-family: Montserrat; font-size: 15.5222px; text-anchor: middle;">CS-01</text><text x="113.46438598632812,113.46438598632812" y="180,213.8667" style="font-family: &quot;M PLUS 2&quot;; font-size: 33.8667px; text-anchor: middle;">東江</text><text x="139.215252" y="152.906576" style="font-family: Montserrat; font-size: 15.5222px; writing-mode: vertical-rl;">Higashie</text><rect x="95" y="130" width="1" height="195" fill="#000000" style=""/><rect x="95px" y="323px" width="1" height="18" fill="#000000" style=""/><rect x="95px" y="325px" width="5" height="16" fill="#2b61de" style=""/><text x="102" y="335" textLength="60px" lengthAdjust="spacingAndGlyphs" style="font-family: &quot;M PLUS 2&quot;; font-size: 12px;">甲総電車談志線</text><text x="102" y="340.5" style="font-family: Montserrat; font-size: 5.33333px;">Danshisen</text><rect x="95px" y="341px" width="1" height="18" fill="#000000" style=""/><rect x="95px" y="343px" width="5" height="16" fill="#b30000" style=""/><text x="102" y="353" textLength="60px" lengthAdjust="spacingAndGlyphs" style="font-family: &quot;M PLUS 2&quot;; font-size: 12px;">赤蔦メトロ赤蔦本線</text><text x="102" y="358.5" style="font-family: Montserrat; font-size: 5.33333px;">Akatsuka Line</text><line x1="165" x2="236" y1="117.5" y2="117.5" stroke="#000000" style="stroke-width: 21.1667;"/><rect x="166" y="106" width="50.799999" height="23" fill="#ffffff" stroke="#000000" style="stroke-width: 2;"/><line x1="165" x2="236" y1="87.5" y2="87.5" stroke="#12aff3" style="stroke-width: 21.1667;"/><text x="190.682186" y="148.098883" textLength="45px" lengthAdjust="spacingAndGlyphs" style="font-family: Montserrat; font-size: 15.5222px; text-anchor: middle;">CS-02</text><text x="183.46438598632812,183.46438598632812,183.46438598632812" y="180,213.8667,247.73340000000002" style="font-family: &quot;M PLUS 2&quot;; font-size: 33.8667px; text-anchor: middle;">高浦岬</text><text x="209.215252" y="152.906576" style="font-family: Montserrat; font-size: 15.5222px; writing-mode: vertical-rl;">Takauramisaki</text><rect x="165" y="130" width="1" height="195" fill="#000000" style=""/><rect x="165px" y="323px" width="1" height="18" fill="#000000" style=""/><rect x="165px" y="325px" width="5" height="16" fill="#2b61de" style=""/><text x="172" y="335" textLength="60px" lengthAdjust="spacingAndGlyphs" style="font-family: &quot;M PLUS 2&quot;; font-size: 12px;">甲総電車談志線</text><text x="172" y="340.5" style="font-family: Montserrat; font-size: 5.33333px;">Danshisen</text><line x1="235" x2="306" y1="117.5" y2="117.5" stroke="#000000" style="stroke-width: 21.1667;"/><rect x="236" y="106" width="50.799999" height="23" fill="#ffffff" stroke="#000000" style="stroke-width: 2;"/><line x1="235" x2="306" y1="87.5" y2="87.5" stroke="#12aff3" style="stroke-width: 21.1667;"/><rect x="236" y="76" width="50.799999" height="23" fill="#ffffff" stroke="#12aff3" style="stroke-width: 2;"/><text x="260.682186" y="148.098883" textLength="45px" lengthAdjust="spacingAndGlyphs" style="font-family: Montserrat; font-size: 15.5222px; text-anchor: middle;">CS-03</text><text x="253.46438598632812,253.46438598632812" y="180,213.8667" style="font-family: &quot;M PLUS 2&quot;; font-size: 33.8667px; text-anchor: middle;">江崎</text><text x="279.215252" y="152.906576" style="font-family: Montserrat; font-size: 15.5222px; writing-mode: vertical-rl;">Ezaki</text><line x1="305" x2="376" y1="117.5" y2="117.5" stroke="#000000" style="stroke-width: 21.1667;"/><rect x="306" y="106" width="50.799999" height="23" fill="#ffffff" stroke="#000000" style="stroke-width: 2;"/><line x1="305" x2="376" y1="87.5" y2="87.5" stroke="#12aff3" style="stroke-width: 21.1667;"/><text x="330.682186" y="148.098883" textLength="45px" lengthAdjust="spacingAndGlyphs" style="font-family: Montserrat; font-size: 15.5222px; text-anchor: middle;">CS-04</text><text x="323.4643859863281,323.4643859863281,323.4643859863281" y="180,213.8667,247.73340000000002" style="font-family: &quot;M PLUS 2&quot;; font-size: 33.8667px; text-anchor: middle;">西江崎</text><text x="349.215252" y="152.906576" style="font-family: Montserrat; font-size: 15.5222px; writing-mode: vertical-rl;">Nishi-Ezaki</text><rect x="305" y="130" width="1" height="195" fill="#000000" style=""/><rect x="305px" y="323px" width="1" height="18" fill="#000000" style=""/><rect x="305px" y="325px" width="5" height="16" fill="#ffdb9e" style=""/><text x="312" y="335" style="font-family: &quot;M PLUS 2&quot;; font-size: 12px;">県営銀楽線</text><text x="312" y="340.5" style="font-family: Montserrat; font-size: 5.33333px;">Ginraku Line</text><line x1="375" x2="446" y1="117.5" y2="117.5" stroke="#000000" style="stroke-width: 21.1667;"/><rect x="376" y="106" width="50.799999" height="23" fill="#ffffff" stroke="#000000" style="stroke-width: 2;"/><line x1="375" x2="446" y1="87.5" y2="87.5" stroke="#12aff3" style="stroke-width: 21.1667;"/><text x="400.682186" y="148.098883" textLength="45px" lengthAdjust="spacingAndGlyphs" style="font-family: Montserrat; font-size: 15.5222px; text-anchor: middle;">CS-05</text><text x="393.4643859863281,393.4643859863281,393.4643859863281,393.4643859863281" y="180,213.8667,247.73340000000002,281.6001" style="font-family: &quot;M PLUS 2&quot;; font-size: 33.8667px; text-anchor: middle;">物部海岸</text><text x="419.215252" y="152.906576" style="font-family: Montserrat; font-size: 15.5222px; writing-mode: vertical-rl;">Mononobe-Kaigan</text><rect x="375" y="130" width="1" height="195" fill="#000000" style=""/><rect x="375px" y="323px" width="1" height="18" fill="#000000" style=""/><rect x="375px" y="325px" width="5" height="16" fill="#ffdb9e" style=""/><text x="382" y="335" style="font-family: &quot;M PLUS 2&quot;; font-size: 12px;">県営銀楽線</text><text x="382" y="340.5" style="font-family: Montserrat; font-size: 5.33333px;">Ginraku Line</text><rect x="375px" y="341px" width="1" height="18" fill="#000000" style=""/><rect x="375px" y="343px" width="5" height="16" fill="#38b3ff" style=""/><text x="382" y="353" textLength="60px" lengthAdjust="spacingAndGlyphs" style="font-family: &quot;M PLUS 2&quot;; font-size: 12px;">京橋鉄道甲日線</text><text x="382" y="358.5" style="font-family: Montserrat; font-size: 5.33333px;">Kouhi Line</text><line x1="445" x2="516" y1="117.5" y2="117.5" stroke="#000000" style="stroke-width: 21.1667;"/><rect x="446" y="106" width="50.799999" height="23" fill="#ffffff" stroke="#000000" style="stroke-width: 2;"/><line x1="445" x2="516" y1="87.5" y2="87.5" stroke="#12aff3" style="stroke-width: 21.1667;"/><text x="470.682186" y="148.098883" textLength="45px" lengthAdjust="spacingAndGlyphs" style="font-family: Montserrat; font-size: 15.5222px; text-anchor: middle;">CS-06</text><text x="463.4643859863281,463.4643859863281,463.4643859863281" y="180,213.8667,247.73340000000002" style="font-family: &quot;M PLUS 2&quot;; font-size: 33.8667px; text-anchor: middle;">東物部</text><text x="489.215252" y="152.906576" style="font-family: Montserrat; font-size: 15.5222px; writing-mode: vertical-rl;">Higashi-Mononobe</text><rect x="445" y="130" width="1" height="195" fill="#000000" style=""/><rect x="445px" y="323px" width="1" height="18" fill="#000000" style=""/><rect x="445px" y="325px" width="5" height="16" fill="#ffdb9e" style=""/><text x="452" y="335" style="font-family: &quot;M PLUS 2&quot;; font-size: 12px;">県営銀楽線</text><text x="452" y="340.5" style="font-family: Montserrat; font-size: 5.33333px;">Ginraku Line</text><rect x="445px" y="341px" width="1" height="18" fill="#000000" style=""/><rect x="445px" y="343px" width="5" height="16" fill="#38b3ff" style=""/><text x="452" y="353" textLength="60px" lengthAdjust="spacingAndGlyphs" style="font-family: &quot;M PLUS 2&quot;; font-size: 12px;">京橋鉄道甲日線</text><text x="452" y="358.5" style="font-family: Montserrat; font-size: 5.33333px;">Kouhi Line</text><rect x="445px" y="359px" width="1" height="18" fill="#000000" style=""/><rect x="445px" y="361px" width="5" height="16" fill="#4f00e0" style=""/><text x="452" y="371" style="font-family: &quot;M PLUS 2&quot;; font-size: 12px;">柳平線</text><text x="452" y="376.5" style="font-family: Montserrat; font-size: 5.33333px;">Yanagidaira Line</text><rect x="445px" y="377px" width="1" height="18" fill="#000000" style=""/><rect x="445px" y="379px" width="5" height="16" fill="#f86868" style=""/><text x="452" y="389" style="font-family: &quot;M PLUS 2&quot;; font-size: 12px;">国鉄三都線</text><text x="452" y="394.5" style="font-family: Montserrat; font-size: 5.33333px;">Yanagidaira Line</text><line x1="515" x2="586" y1="117.5" y2="117.5" stroke="#000000" style="stroke-width: 21.1667;"/><rect x="516" y="106" width="50.799999" height="23" fill="#ffffff" stroke="#000000" style="stroke-width: 2;"/><line x1="515" x2="586" y1="87.5" y2="87.5" stroke="#12aff3" style="stroke-width: 21.1667;"/><rect x="516" y="76" width="50.799999" height="23" fill="#ffffff" stroke="#12aff3" style="stroke-width: 2;"/><text x="540.682186" y="148.098883" textLength="45px" lengthAdjust="spacingAndGlyphs" style="font-family: Montserrat; font-size: 15.5222px; text-anchor: middle;">CS-07</text><text x="533.46435546875,533.46435546875" y="180,213.8667" style="font-family: &quot;M PLUS 2&quot;; font-size: 33.8667px; text-anchor: middle;">物部</text><text x="559.215252" y="152.906576" style="font-family: Montserrat; font-size: 15.5222px; writing-mode: vertical-rl;">Mononobe</text><rect x="515" y="130" width="1" height="195" fill="#000000" style=""/><rect x="515px" y="323px" width="1" height="18" fill="#000000" style=""/><rect x="515px" y="325px" width="5" height="16" fill="#ffdb9e" style=""/><text x="522" y="335" style="font-family: &quot;M PLUS 2&quot;; font-size: 12px;">県営銀楽線</text><text x="522" y="340.5" style="font-family: Montserrat; font-size: 5.33333px;">Ginraku Line</text><rect x="515px" y="341px" width="1" height="18" fill="#000000" style=""/><rect x="515px" y="343px" width="5" height="16" fill="#38b3ff" style=""/><text x="522" y="353" textLength="60px" lengthAdjust="spacingAndGlyphs" style="font-family: &quot;M PLUS 2&quot;; font-size: 12px;">京橋鉄道甲日線</text><text x="522" y="358.5" style="font-family: Montserrat; font-size: 5.33333px;">Kouhi Line</text><rect x="515px" y="359px" width="1" height="18" fill="#000000" style=""/><rect x="515px" y="361px" width="5" height="16" fill="#4f00e0" style=""/><text x="522" y="371" style="font-family: &quot;M PLUS 2&quot;; font-size: 12px;">柳平線</text><text x="522" y="376.5" style="font-family: Montserrat; font-size: 5.33333px;">Yanagidaira Line</text><rect x="515px" y="377px" width="1" height="18" fill="#000000" style=""/><rect x="515px" y="379px" width="5" height="16" fill="#f86868" style=""/><text x="522" y="389" style="font-family: &quot;M PLUS 2&quot;; font-size: 12px;">国鉄三都線</text><text x="522" y="394.5" style="font-family: Montserrat; font-size: 5.33333px;">Yanagidaira Line</text><rect x="515px" y="395px" width="1" height="18" fill="#000000" style=""/><rect x="515px" y="397px" width="5" height="16" fill="#f37b39" style=""/><text x="522" y="407" textLength="60px" lengthAdjust="spacingAndGlyphs" style="font-family: &quot;M PLUS 2&quot;; font-size: 12px;">房野電鉄房野線</text><text x="522" y="412.5" style="font-family: Montserrat; font-size: 5.33333px;">Fusano Line</text><rect x="515px" y="413px" width="1" height="18" fill="#000000" style=""/><rect x="515px" y="415px" width="5" height="16" fill="#c670f5" style=""/><text x="522" y="425" textLength="60px" lengthAdjust="spacingAndGlyphs" style="font-family: &quot;M PLUS 2&quot;; font-size: 12px;">藤原電鉄大川線</text><text x="522" y="430.5" style="font-family: Montserrat; font-size: 5.33333px;">Okawa Line</text><line x1="585" x2="656" y1="117.5" y2="117.5" stroke="#000000" style="stroke-width: 21.1667;"/><rect x="586" y="106" width="50.799999" height="23" fill="#ffffff" stroke="#000000" style="stroke-width: 2;"/><line x1="585" x2="656" y1="87.5" y2="87.5" stroke="#12aff3" style="stroke-width: 21.1667;"/><rect x="586" y="76" width="50.799999" height="23" fill="#ffffff" stroke="#12aff3" style="stroke-width: 2;"/><text x="610.682186" y="148.098883" textLength="45px" lengthAdjust="spacingAndGlyphs" style="font-family: Montserrat; font-size: 15.5222px; text-anchor: middle;">CS-08</text><text x="603.46435546875,603.46435546875" y="180,213.8667" style="font-family: &quot;M PLUS 2&quot;; font-size: 33.8667px; text-anchor: middle;">市崎</text><text x="629.215252" y="152.906576" style="font-family: Montserrat; font-size: 15.5222px; writing-mode: vertical-rl;">Ichizaki</text><rect x="585" y="130" width="1" height="195" fill="#000000" style=""/><rect x="585px" y="323px" width="1" height="18" fill="#000000" style=""/><rect x="585px" y="325px" width="5" height="16" fill="#ffdb9e" style=""/><text x="592" y="335" style="font-family: &quot;M PLUS 2&quot;; font-size: 12px;">県営銀楽線</text><text x="592" y="340.5" style="font-family: Montserrat; font-size: 5.33333px;">Ginraku Line</text><rect x="585px" y="341px" width="1" height="18" fill="#000000" style=""/><rect x="585px" y="343px" width="5" height="16" fill="#38b3ff" style=""/><text x="592" y="353" textLength="60px" lengthAdjust="spacingAndGlyphs" style="font-family: &quot;M PLUS 2&quot;; font-size: 12px;">京橋鉄道甲日線</text><text x="592" y="358.5" style="font-family: Montserrat; font-size: 5.33333px;">Kouhi Line</text><rect x="585px" y="359px" width="1" height="18" fill="#000000" style=""/><rect x="585px" y="361px" width="5" height="16" fill="#f86868" style=""/><text x="592" y="371" style="font-family: &quot;M PLUS 2&quot;; font-size: 12px;">国鉄三都線</text><text x="592" y="376.5" style="font-family: Montserrat; font-size: 5.33333px;">Yanagidaira Line</text><line x1="655" x2="726" y1="117.5" y2="117.5" stroke="#000000" style="stroke-width: 21.1667;"/><rect x="656" y="106" width="50.799999" height="23" fill="#ffffff" stroke="#000000" style="stroke-width: 2;"/><line x1="655" x2="726" y1="87.5" y2="87.5" stroke="#12aff3" style="stroke-width: 21.1667;"/><text x="680.682186" y="148.098883" textLength="45px" lengthAdjust="spacingAndGlyphs" style="font-family: Montserrat; font-size: 15.5222px; text-anchor: middle;">CS-09</text><text x="673.46435546875,673.46435546875" y="180,213.8667" style="font-family: &quot;M PLUS 2&quot;; font-size: 33.8667px; text-anchor: middle;">舟谷</text><text x="699.215252" y="152.906576" style="font-family: Montserrat; font-size: 15.5222px; writing-mode: vertical-rl;">Funatani</text><rect x="655" y="130" width="1" height="195" fill="#000000" style=""/><rect x="655px" y="323px" width="1" height="18" fill="#000000" style=""/><rect x="655px" y="325px" width="5" height="16" fill="#ffdb9e" style=""/><text x="662" y="335" style="font-family: &quot;M PLUS 2&quot;; font-size: 12px;">県営銀楽線</text><text x="662" y="340.5" style="font-family: Montserrat; font-size: 5.33333px;">Ginraku Line</text><rect x="655px" y="341px" width="1" height="18" fill="#000000" style=""/><rect x="655px" y="343px" width="5" height="16" fill="#38b3ff" style=""/><text x="662" y="353" textLength="60px" lengthAdjust="spacingAndGlyphs" style="font-family: &quot;M PLUS 2&quot;; font-size: 12px;">京橋鉄道甲日線</text><text x="662" y="358.5" style="font-family: Montserrat; font-size: 5.33333px;">Kouhi Line</text><rect x="655px" y="359px" width="1" height="18" fill="#000000" style=""/><rect x="655px" y="361px" width="5" height="16" fill="#b30000" style=""/><text x="662" y="371" textLength="60px" lengthAdjust="spacingAndGlyphs" style="font-family: &quot;M PLUS 2&quot;; font-size: 12px;">赤蔦メトロ赤蔦本線</text><text x="662" y="376.5" style="font-family: Montserrat; font-size: 5.33333px;">Akatsuka Line</text><line x1="725" x2="796" y1="117.5" y2="117.5" stroke="#000000" style="stroke-width: 21.1667;"/><rect x="726" y="106" width="50.799999" height="23" fill="#ffffff" stroke="#000000" style="stroke-width: 2;"/><line x1="725" x2="796" y1="87.5" y2="87.5" stroke="#12aff3" style="stroke-width: 21.1667;"/><rect x="726" y="76" width="50.799999" height="23" fill="#ffffff" stroke="#12aff3" style="stroke-width: 2;"/><text x="750.682186" y="148.098883" style="font-family: Montserrat; font-size: 15.5222px; text-anchor: middle;">CS-10</text><text x="743.46435546875,743.46435546875" y="180,213.8667" style="font-family: &quot;M PLUS 2&quot;; font-size: 33.8667px; text-anchor: middle;">伊舟</text><text x="769.215252" y="152.906576" style="font-family: Montserrat; font-size: 15.5222px; writing-mode: vertical-rl;">Ifune</text><rect x="725" y="130" width="1" height="195" fill="#000000" style=""/><rect x="725px" y="323px" width="1" height="18" fill="#000000" style=""/><rect x="725px" y="325px" width="5" height="16" fill="#eaa939" style=""/><text x="732" y="335" style="font-family: &quot;M PLUS 2&quot;; font-size: 12px;">山南線</text><text x="732" y="340.5" style="font-family: Montserrat; font-size: 5.33333px;">Yamanan Line</text><line x1="795" x2="866" y1="117.5" y2="117.5" stroke="#000000" style="stroke-width: 21.1667;"/><rect x="796" y="106" width="50.799999" height="23" fill="#ffffff" stroke="#000000" style="stroke-width: 2;"/><line x1="795" x2="866" y1="87.5" y2="87.5" stroke="#12aff3" style="stroke-width: 21.1667;"/><rect x="796" y="76" width="50.799999" height="23" fill="#ffffff" stroke="#12aff3" style="stroke-width: 2;"/><text x="820.682186" y="148.098883" style="font-family: Montserrat; font-size: 15.5222px; text-anchor: middle;">CS-11</text><text x="813.46435546875,813.46435546875" y="180,213.8667" style="font-family: &quot;M PLUS 2&quot;; font-size: 33.8667px; text-anchor: middle;">汐崖</text><text x="839.215252" y="152.906576" style="font-family: Montserrat; font-size: 15.5222px; writing-mode: vertical-rl;">Shiogai</text><line x1="865" x2="936" y1="117.5" y2="117.5" stroke="#000000" style="stroke-width: 21.1667;"/><rect x="866" y="106" width="50.799999" height="23" fill="#ffffff" stroke="#000000" style="stroke-width: 2;"/><line x1="865" x2="936" y1="87.5" y2="87.5" stroke="#12aff3" style="stroke-width: 21.1667;"/><rect x="866" y="76" width="50.799999" height="23" fill="#ffffff" stroke="#12aff3" style="stroke-width: 2;"/><text x="890.682186" y="148.098883" style="font-family: Montserrat; font-size: 15.5222px; text-anchor: middle;">CS-12</text><text x="883.46435546875,883.46435546875,883.46435546875" y="180,213.8667,247.73340000000002" style="font-family: &quot;M PLUS 2&quot;; font-size: 33.8667px; text-anchor: middle;">北汐崖</text><text x="909.215252" y="152.906576" style="font-family: Montserrat; font-size: 15.5222px; writing-mode: vertical-rl;">Kita-Shiogai</text><line x1="935" x2="1006" y1="117.5" y2="117.5" stroke="#000000" style="stroke-width: 21.1667;"/><rect x="936" y="106" width="50.799999" height="23" fill="#ffffff" stroke="#000000" style="stroke-width: 2;"/><line x1="935" x2="1006" y1="87.5" y2="87.5" stroke="#12aff3" style="stroke-width: 21.1667;"/><text x="960.682186" y="148.098883" style="font-family: Montserrat; font-size: 15.5222px; text-anchor: middle;">CS-13</text><text x="953.46435546875,953.46435546875" y="180,213.8667" style="font-family: &quot;M PLUS 2&quot;; font-size: 33.8667px; text-anchor: middle;">渡湊</text><text x="979.215252" y="152.906576" style="font-family: Montserrat; font-size: 15.5222px; writing-mode: vertical-rl;">Watariminato</text><line x1="1005" x2="1076" y1="117.5" y2="117.5" stroke="#000000" style="stroke-width: 21.1667;"/><rect x="1006" y="106" width="50.799999" height="23" fill="#ffffff" stroke="#000000" style="stroke-width: 2;"/><line x1="1005" x2="1076" y1="87.5" y2="87.5" stroke="#12aff3" style="stroke-width: 21.1667;"/><rect x="1006" y="76" width="50.799999" height="23" fill="#ffffff" stroke="#12aff3" style="stroke-width: 2;"/><text x="1030.682186" y="148.098883" style="font-family: Montserrat; font-size: 15.5222px; text-anchor: middle;">CS-14</text><text x="1023.46435546875,1023.46435546875" y="180,213.8667" style="font-family: &quot;M PLUS 2&quot;; font-size: 33.8667px; text-anchor: middle;">渡町</text><text x="1049.215252" y="152.906576" style="font-family: Montserrat; font-size: 15.5222px; writing-mode: vertical-rl;">Watarimachi</text><rect x="1005" y="130" width="1" height="195" fill="#000000" style=""/><rect x="1005px" y="323px" width="1" height="18" fill="#000000" style=""/><rect x="1005px" y="325px" width="5" height="16" fill="#68ea39" style=""/><text x="1012" y="335" textLength="60px" lengthAdjust="spacingAndGlyphs" style="font-family: &quot;M PLUS 2&quot;; font-size: 12px;">京橋鉄道早手川線</text><text x="1012" y="340.5" style="font-family: Montserrat; font-size: 5.33333px;">Hayategawa Line</text><line x1="1075" x2="1146" y1="117.5" y2="117.5" stroke="#000000" style="stroke-width: 21.1667;"/><rect x="1076" y="106" width="50.799999" height="23" fill="#ffffff" stroke="#000000" style="stroke-width: 2;"/><line x1="1075" x2="1146" y1="87.5" y2="87.5" stroke="#12aff3" style="stroke-width: 21.1667;"/><text x="1100.682186" y="148.098883" style="font-family: Montserrat; font-size: 15.5222px; text-anchor: middle;">CS-15</text><text x="1093.46435546875,1093.46435546875" y="180,213.8667" style="font-family: &quot;M PLUS 2&quot;; font-size: 33.8667px; text-anchor: middle;">松陽</text><text x="1119.215252" y="152.906576" style="font-family: Montserrat; font-size: 15.5222px; writing-mode: vertical-rl;">Matsuyou</text><rect x="1075" y="130" width="1" height="195" fill="#000000" style=""/><rect x="1075px" y="323px" width="1" height="18" fill="#000000" style=""/><rect x="1075px" y="325px" width="5" height="16" fill="#68ea39" style=""/><text x="1082" y="335" textLength="60px" lengthAdjust="spacingAndGlyphs" style="font-family: &quot;M PLUS 2&quot;; font-size: 12px;">京橋鉄道早手川線</text><text x="1082" y="340.5" style="font-family: Montserrat; font-size: 5.33333px;">Hayategawa Line</text><line x1="1145" x2="1216" y1="117.5" y2="117.5" stroke="#000000" style="stroke-width: 21.1667;"/><rect x="1146" y="106" width="50.799999" height="23" fill="#ffffff" stroke="#000000" style="stroke-width: 2;"/><line x1="1145" x2="1216" y1="87.5" y2="87.5" stroke="#12aff3" style="stroke-width: 21.1667;"/><rect x="1146" y="76" width="50.799999" height="23" fill="#ffffff" stroke="#12aff3" style="stroke-width: 2;"/><text x="1170.682186" y="148.098883" style="font-family: Montserrat; font-size: 15.5222px; text-anchor: middle;">CS-16</text><text x="1163.46435546875,1163.46435546875,1163.46435546875" y="180,213.8667,247.73340000000002" style="font-family: &quot;M PLUS 2&quot;; font-size: 33.8667px; text-anchor: middle;">北香津</text><text x="1189.215252" y="152.906576" style="font-family: Montserrat; font-size: 15.5222px; writing-mode: vertical-rl;">Kita-Kouzu</text><rect x="1145" y="130" width="1" height="195" fill="#000000" style=""/><rect x="1145px" y="323px" width="1" height="18" fill="#000000" style=""/><rect x="1145px" y="325px" width="5" height="16" fill="#68ea39" style=""/><text x="1152" y="335" textLength="60px" lengthAdjust="spacingAndGlyphs" style="font-family: &quot;M PLUS 2&quot;; font-size: 12px;">京橋鉄道早手川線</text><text x="1152" y="340.5" style="font-family: Montserrat; font-size: 5.33333px;">Hayategawa Line</text><rect x="1216" y="106" width="50.799999" height="23" fill="#ffffff" stroke="#000000" style="stroke-width: 2;"/><rect x="1216" y="76" width="50.799999" height="23" fill="#ffffff" stroke="#12aff3" style="stroke-width: 2;"/><text x="1240.682186" y="148.098883" style="font-family: Montserrat; font-size: 15.5222px; text-anchor: middle;">CS-17</text><text x="1233.46435546875,1233.46435546875" y="180,213.8667" style="font-family: &quot;M PLUS 2&quot;; font-size: 33.8667px; text-anchor: middle;">香津</text><text x="1259.215252" y="152.906576" style="font-family: Montserrat; font-size: 15.5222px; writing-mode: vertical-rl;">Kouzu</text><rect x="1215" y="130" width="1" height="195" fill="#000000" style=""/><rect x="1215px" y="323px" width="1" height="18" fill="#000000" style=""/><rect x="1215px" y="325px" width="5" height="16" fill="#68ea39" style=""/><text x="1222" y="335" textLength="60px" lengthAdjust="spacingAndGlyphs" style="font-family: &quot;M PLUS 2&quot;; font-size: 12px;">京橋鉄道早手川線</text><text x="1222" y="340.5" style="font-family: Montserrat; font-size: 5.33333px;">Hayategawa Line</text><rect x="1215px" y="341px" width="1" height="18" fill="#000000" style=""/><rect x="1215px" y="343px" width="5" height="16" fill="#68ea39" style=""/><text x="1222" y="353" textLength="60px" lengthAdjust="spacingAndGlyphs" style="font-family: &quot;M PLUS 2&quot;; font-size: 12px;">早手川線直通列車</text><text x="1222" y="358.5" style="font-family: Montserrat; font-size: 5.33333px;">Direct train</text></svg>